<svg width="32" height="32" viewBox="0 0 32 32" fill="none" xmlns="http://www.w3.org/2000/svg">
  <!-- Background circle with gradient -->
  <circle cx="16" cy="16" r="16" fill="url(#synthGradient)"/>
  
  <!-- Piano keys -->
  <rect x="4" y="18" width="24" height="10" rx="1" fill="#ffffff"/>
  
  <!-- Black keys -->
  <rect x="7" y="18" width="2" height="6" fill="#000000"/>
  <rect x="11" y="18" width="2" height="6" fill="#000000"/>
  <rect x="17" y="18" width="2" height="6" fill="#000000"/>
  <rect x="21" y="18" width="2" height="6" fill="#000000"/>
  <rect x="25" y="18" width="2" height="6" fill="#000000"/>
  
  <!-- White key separators -->
  <line x1="8" y1="18" x2="8" y2="28" stroke="#ddd" stroke-width="0.5"/>
  <line x1="12" y1="18" x2="12" y2="28" stroke="#ddd" stroke-width="0.5"/>
  <line x1="16" y1="18" x2="16" y2="28" stroke="#ddd" stroke-width="0.5"/>
  <line x1="20" y1="18" x2="20" y2="28" stroke="#ddd" stroke-width="0.5"/>
  <line x1="24" y1="18" x2="24" y2="28" stroke="#ddd" stroke-width="0.5"/>
  
  <!-- Synthesizer knobs -->
  <circle cx="10" cy="10" r="3" fill="#333" stroke="#666" stroke-width="1"/>
  <circle cx="22" cy="10" r="3" fill="#333" stroke="#666" stroke-width="1"/>
  <circle cx="16" cy="6" r="2.5" fill="#333" stroke="#666" stroke-width="1"/>
  
  <!-- Knob indicators -->
  <line x1="10" y1="8" x2="10" y2="9" stroke="#00ff88" stroke-width="1" stroke-linecap="round"/>
  <line x1="22" y1="8" x2="22" y2="9" stroke="#00ff88" stroke-width="1" stroke-linecap="round"/>
  <line x1="16" y1="4.5" x2="16" y2="5.5" stroke="#00ff88" stroke-width="1" stroke-linecap="round"/>
  
  <!-- LED indicators -->
  <circle cx="6" cy="14" r="1" fill="#ff4444"/>
  <circle cx="26" cy="14" r="1" fill="#00ff88"/>
  
  <defs>
    <linearGradient id="synthGradient" x1="0%" y1="0%" x2="100%" y2="100%">
      <stop offset="0%" style="stop-color:#1a1a1a;stop-opacity:1" />
      <stop offset="100%" style="stop-color:#333333;stop-opacity:1" />
    </linearGradient>
  </defs>
</svg>
